<?xml version="1.0" standalone="no"?><!DOCTYPE svg PUBLIC "-//W3C//DTD SVG 1.1//EN" "http://www.w3.org/Graphics/SVG/1.1/DTD/svg11.dtd"><svg t="1582620762684" class="icon" viewBox="0 0 1024 1024" version="1.1" xmlns="http://www.w3.org/2000/svg" p-id="6425" xmlns:xlink="http://www.w3.org/1999/xlink" width="200" height="200"><defs><style type="text/css"></style></defs><path d="M1013.954905 649.382918l-157.922889-159.921913c-5.997072-6.097023-14.19307-9.495364-22.788873-9.495363H543.284724v-96.15305h383.912543c52.874183 0 95.953148-43.078965 95.953148-95.953148v-191.906296c0-52.874183-43.078965-95.953148-95.953148-95.953148H193.355588c-8.495852 0-16.591898 3.398341-22.58897 9.295461L9.845193 169.517228c-5.997072 5.997072-9.395412 14.19307-9.395413 22.688921s3.398341 16.69185 9.495364 22.688922l160.921425 159.622059c5.997072 5.897121 14.093119 9.295461 22.489019 9.295462h286.060322v96.15305H96.402928c-52.874183 0-95.953148 43.078965-95.953148 95.953148v191.906295c0 52.874183 43.078965 95.953148 95.953148 95.953148h383.012982V991.016105c0 17.691362 14.293021 31.984383 31.984383 31.984383s31.984383-14.293021 31.984382-31.984383V863.778233h289.958419c8.595803 0 16.791801-3.398341 22.788873-9.495363l157.922889-159.921913c12.194046-12.493899 12.194046-32.484139-0.099951-44.978039zM77.812006 192.106198L206.549146 63.968765h720.648121c17.59141 0 31.984383 14.392972 31.984383 31.984383v191.906296c0 17.59141-14.392972 31.984383-31.984383 31.984382h-720.648121L77.812006 192.106198z m742.137628 607.70327H96.402928c-17.59141 0-31.984383-14.392972-31.984382-31.984383v-191.906295c0-17.59141 14.392972-31.984383 31.984382-31.984383h723.546706l126.338311 127.937531-126.338311 127.93753z" p-id="6426"></path></svg>