<?xml version="1.0" standalone="no"?><!DOCTYPE svg PUBLIC "-//W3C//DTD SVG 1.1//EN" "http://www.w3.org/Graphics/SVG/1.1/DTD/svg11.dtd"><svg t="1582620776441" class="icon" viewBox="0 0 1024 1024" version="1.1" xmlns="http://www.w3.org/2000/svg" p-id="7211" xmlns:xlink="http://www.w3.org/1999/xlink" width="200" height="200"><defs><style type="text/css"></style></defs><path d="M513.024 935.936c-20.992 0-43.008-9.216-65.024-27.136-0.512-0.512-1.536-1.024-2.048-2.048l-321.536-322.048c-48.64-48.64-75.264-113.152-75.264-182.272 0-68.608 26.624-133.632 75.264-181.76 48.64-48.64 113.152-75.264 181.76-75.264s133.632 26.624 181.76 75.264l23.552 23.552 24.064-24.064c50.176-50.176 119.808-77.312 190.464-74.752 16.384 0.512 28.672 14.336 28.16 30.208-0.512 16.384-14.336 29.696-30.208 28.16-54.784-1.536-108.544 19.456-147.456 57.856l-43.008 43.52c-5.12 6.144-12.8 10.24-20.992 10.24-8.192 0.512-15.872-2.56-22.016-8.192l-44.544-44.544C409.6 224.768 359.424 204.288 306.176 204.288c-53.248 0-102.912 20.48-140.288 57.856C128.512 299.52 107.52 349.696 107.52 402.944c0 53.248 20.48 102.912 57.856 140.8L486.4 864.256c19.968 16.384 30.208 18.432 49.664 0.512l322.048-322.048c47.104-47.616 67.584-115.2 54.272-181.248-3.072-15.872 7.168-31.232 23.04-34.816 15.872-3.072 31.232 7.168 34.816 23.04 17.408 84.992-8.704 172.544-70.144 233.984l-322.56 322.56C556.544 926.208 535.04 935.936 513.024 935.936z" p-id="7212"></path><path d="M274.432 498.688 274.432 498.688c-16.384 0-29.184-13.312-29.184-29.184l0-98.816c0-16.384 13.312-29.184 29.184-29.184l0 0c16.384 0 29.184 13.312 29.184 29.184l0 98.816C304.128 485.888 290.816 498.688 274.432 498.688z" p-id="7213"></path><path d="M749.568 498.688 749.568 498.688c-16.384 0-29.184-13.312-29.184-29.184l0-98.816c0-16.384 13.312-29.184 29.184-29.184l0 0c16.384 0 29.184 13.312 29.184 29.184l0 98.816C778.752 485.888 765.44 498.688 749.568 498.688z" p-id="7214"></path><path d="M942.592 265.216C942.592 265.216 942.592 265.216 942.592 265.216l-175.616 0c-16.384 0-29.184-13.312-29.184-29.184s13.312-29.184 29.184-29.184c0 0 0 0 0 0l175.616 0c16.384 0 29.184 13.312 29.184 29.184C971.776 252.416 958.464 265.216 942.592 265.216z" p-id="7215"></path><path d="M854.528 353.28 854.528 353.28c-16.384 0-29.184-13.312-29.184-29.184l0-175.616c0-16.384 13.312-29.184 29.184-29.184l0 0c16.384 0 29.184 13.312 29.184 29.184l0 175.616C883.712 339.968 870.912 353.28 854.528 353.28z" p-id="7216"></path></svg>