<?xml version="1.0" standalone="no"?><!DOCTYPE svg PUBLIC "-//W3C//DTD SVG 1.1//EN" "http://www.w3.org/Graphics/SVG/1.1/DTD/svg11.dtd"><svg t="1582620795784" class="icon" viewBox="0 0 1064 1024" version="1.1" xmlns="http://www.w3.org/2000/svg" p-id="9319" xmlns:xlink="http://www.w3.org/1999/xlink" width="207.8125" height="200"><defs><style type="text/css"></style></defs><path d="M304.355556 855.789899H74.343434V168.210101h230.012122V112.355556h-304.355556v799.288888h304.355556zM444.193616 340.66101v129.292929h-73.69697v-129.292929zM510.577778 112.355556H989.737374v55.854545H510.577778z" fill="" p-id="9320"></path><path d="M989.737374 112.355556v743.434343H510.577778v55.854545h553.50303V112.355556zM444.147071 553.947798v129.292929h-73.69697v-129.292929zM462.739394 112.355556c4.266667 8.40404 6.593939 17.842424 6.593939 27.927272 0 34.262626-27.79798 62.060606-62.060606 62.060606s-62.060606-27.79798-62.060606-62.060606c0-10.084848 2.456566-19.523232 6.59394-27.927272h-77.446465c-1.939394 9.050505-2.844444 18.359596-2.844444 27.927272 0 74.989899 60.767677 135.757576 135.757575 135.757576s135.757576-60.767677 135.757576-135.757576c0-9.567677-1.034343-18.876768-2.844444-27.927272h-77.446465z" fill="" p-id="9321"></path><path d="M358.4 911.644444c-4.266667-8.40404-6.593939-17.842424-6.593939-27.927272 0-34.262626 27.79798-62.060606 62.060606-62.060606s62.060606 27.79798 62.060606 62.060606c0 10.084848-2.456566 19.523232-6.59394 27.927272h77.446465c1.939394-9.050505 2.844444-18.359596 2.844444-27.927272 0-74.989899-60.767677-135.757576-135.757575-135.757576s-135.757576 60.767677-135.757576 135.757576c0 9.567677 1.034343 18.876768 2.844444 27.927272h77.446465z" fill="" p-id="9322"></path></svg>